<?xml version="1.0" encoding="utf-8"?>
<!-- Generator: Adobe Illustrator 26.0.1, SVG Export Plug-In . SVG Version: 6.00 Build 0)  -->
<svg version="1.1" id="Layer_3" xmlns="http://www.w3.org/2000/svg" xmlns:xlink="http://www.w3.org/1999/xlink" x="0px" y="0px"
	 viewBox="0 0 252 99" style="enable-background:new 0 0 252 99;" xml:space="preserve">
<style type="text/css">
	.st0{fill:#A71F36;}
	.st1{fill:#213368;}
	.st2{fill:#FFFFFF;}
</style>
<g>
	<path class="st0" d="M9.81,56.87c0-5.77,3.91-9.62,9.35-9.62c3.82,0,7.85,1.92,8.79,6.97c0.06,0.35-0.18,0.51-0.56,0.51h-3.32
		c-0.38,0-0.53-0.16-0.65-0.51c-0.71-2.03-2.18-3.05-4.09-3.05c-2.94,0-4.82,2.27-4.82,5.69c0,3.42,1.88,5.69,4.82,5.69
		c1.91,0,3.38-1.02,4.09-3.05c0.12-0.35,0.26-0.51,0.65-0.51h3.32c0.38,0,0.62,0.16,0.56,0.51c-0.94,5.05-4.97,6.97-8.79,6.97
		C13.72,66.49,9.81,62.64,9.81,56.87z"/>
	<path class="st0" d="M31.45,56.87c0-5.77,3.85-9.62,9.64-9.62c5.76,0,9.61,3.85,9.61,9.62s-3.85,9.62-9.61,9.62
		C35.3,66.49,31.45,62.64,31.45,56.87z M46,56.87c0-3.42-1.97-5.69-4.91-5.69c-2.97,0-4.94,2.27-4.94,5.69
		c0,3.42,1.97,5.69,4.94,5.69C44.03,62.56,46,60.29,46,56.87z"/>
	<path class="st0" d="M55.37,65.72V48.03c0-0.32,0.21-0.51,0.56-0.51h2.79c0.47,0,0.76,0.24,0.94,0.51l6.29,8.92l0.97,1.74V48.03
		c0-0.32,0.21-0.51,0.56-0.51h3.53c0.35,0,0.53,0.19,0.53,0.51v17.69c0,0.32-0.18,0.51-0.53,0.51h-2.67c-0.47,0-0.71-0.19-0.94-0.51
		l-6.41-9.14l-1-1.76v10.9c0,0.32-0.18,0.51-0.53,0.51h-3.53C55.58,66.22,55.37,66.04,55.37,65.72z"/>
	<path class="st0" d="M75.89,60.32c-0.06-0.4,0.26-0.48,0.62-0.48h3.17c0.38,0,0.62,0.16,0.73,0.48c0.26,0.67,0.56,1.18,1.09,1.6
		c0.62,0.48,1.53,0.83,2.59,0.83c1.41,0,2.47-0.61,2.47-1.71c0-1.44-1.85-1.71-4.5-2.62c-1.21-0.43-2.59-0.96-3.62-1.84
		c-1-0.88-1.68-2.11-1.68-3.79c0-3.29,2.67-5.53,6.73-5.53c3.94,0,6.73,2,7.23,5.91c0.03,0.32-0.21,0.48-0.53,0.48h-3.38
		c-0.32,0-0.53-0.13-0.62-0.48c-0.15-0.53-0.38-1.04-0.76-1.44c-0.41-0.43-1.06-0.72-2-0.72c-1.35,0-2.15,0.64-2.15,1.6
		c0,1.28,1.5,1.79,3.41,2.4c2.29,0.75,6.38,1.92,6.38,5.91c0,3.39-2.94,5.58-7.14,5.58C79.36,66.49,76.42,63.87,75.89,60.32z"/>
	<path class="st0" d="M100.41,51.37v3.18h6.64c0.35,0,0.56,0.16,0.56,0.51v2.83c0,0.35-0.21,0.51-0.56,0.51h-6.64v3.98h8.11
		c0.35,0,0.56,0.19,0.56,0.51v2.83c0,0.32-0.21,0.51-0.56,0.51H96.35c-0.35,0-0.56-0.19-0.56-0.51V48.03c0-0.32,0.21-0.51,0.56-0.51
		h12.17c0.35,0,0.56,0.19,0.56,0.51v2.83c0,0.32-0.21,0.51-0.56,0.51H100.41z"/>
	<path class="st0" d="M128.74,66.22h-3.97c-0.24,0-0.47-0.11-0.62-0.4l-2.97-6.09c-0.24-0.48-0.32-0.59-0.82-0.59h-1.82v6.57
		c0,0.32-0.18,0.51-0.53,0.51h-3.53c-0.35,0-0.56-0.19-0.56-0.51V48.03c0-0.32,0.21-0.51,0.56-0.51h7.26c4.17,0,7,2.16,7,5.8
		c0,2.54-1.32,4.36-3.56,5.24c0.47,0.21,0.71,0.64,0.97,1.12l3,6.09C129.27,66.01,129.12,66.22,128.74,66.22z M118.45,51.37v4.2
		h2.79c1.65,0,2.73-0.77,2.73-2.08c0-1.31-1.09-2.11-2.73-2.11H118.45z"/>
	<path class="st0" d="M150.08,48.03l-7.17,17.66c-0.12,0.32-0.35,0.53-0.71,0.53h-3.03c-0.35,0-0.56-0.19-0.68-0.48l-7.17-17.72
		c-0.09-0.19-0.06-0.35,0.09-0.43c0.09-0.05,0.32-0.08,0.5-0.08h4.23c0.35,0,0.5,0.16,0.62,0.51l3.5,9.91l0.71,2.73l0.65-2.73
		l3.5-9.91c0.12-0.35,0.26-0.51,0.65-0.51h3.7c0.18,0,0.41,0,0.5,0.05C150.11,47.65,150.17,47.81,150.08,48.03z"/>
	<path class="st0" d="M168.84,66.22h-4.23c-0.38,0-0.44-0.16-0.56-0.51l-0.82-2.3h-7.35l-0.82,2.3c-0.12,0.32-0.21,0.51-0.56,0.51
		h-4.06c-0.38,0-0.59-0.16-0.41-0.53l7.58-17.66c0.15-0.32,0.29-0.51,0.68-0.51h2.7c0.38,0,0.56,0.19,0.68,0.48l7.58,17.72
		C169.37,66.04,169.22,66.22,168.84,66.22z M161.9,59.78l-1.29-3.61l-1.03-3.45l-1.06,3.45l-1.32,3.61H161.9z"/>
	<path class="st0" d="M184.5,48.03v2.83c0,0.32-0.15,0.51-0.5,0.51h-4.76v14.35c0,0.32-0.18,0.51-0.56,0.51h-3.53
		c-0.38,0-0.53-0.19-0.53-0.51V51.37h-4.7c-0.35,0-0.56-0.19-0.56-0.51v-2.83c0-0.32,0.21-0.51,0.56-0.51H184
		C184.36,47.52,184.5,47.71,184.5,48.03z"/>
	<path class="st0" d="M186.97,56.87c0-5.77,3.85-9.62,9.64-9.62c5.76,0,9.61,3.85,9.61,9.62s-3.85,9.62-9.61,9.62
		C190.82,66.49,186.97,62.64,186.97,56.87z M201.52,56.87c0-3.42-1.97-5.69-4.91-5.69c-2.97,0-4.94,2.27-4.94,5.69
		c0,3.42,1.97,5.69,4.94,5.69C199.55,62.56,201.52,60.29,201.52,56.87z"/>
	<path class="st0" d="M225.71,66.22h-3.97c-0.24,0-0.47-0.11-0.62-0.4l-2.97-6.09c-0.24-0.48-0.32-0.59-0.82-0.59h-1.82v6.57
		c0,0.32-0.18,0.51-0.53,0.51h-3.53c-0.35,0-0.56-0.19-0.56-0.51V48.03c0-0.32,0.21-0.51,0.56-0.51h7.26c4.17,0,7,2.16,7,5.8
		c0,2.54-1.32,4.36-3.56,5.24c0.47,0.21,0.71,0.64,0.97,1.12l3,6.09C226.24,66.01,226.1,66.22,225.71,66.22z M215.43,51.37v4.2h2.79
		c1.65,0,2.73-0.77,2.73-2.08c0-1.31-1.09-2.11-2.73-2.11H215.43z"/>
	<path class="st0" d="M246.08,48.03l-6.61,11.65v6.04c0,0.32-0.18,0.51-0.53,0.51h-3.56c-0.35,0-0.56-0.19-0.56-0.51v-6.09
		l-6.73-11.6c-0.18-0.32,0.06-0.51,0.56-0.51h4.12c0.38,0,0.56,0.16,0.73,0.51l2.91,5.42l0.82,2.43l0.82-2.43l2.88-5.42
		c0.18-0.32,0.35-0.51,0.71-0.51h3.91C246.06,47.52,246.32,47.63,246.08,48.03z"/>
</g>
<g>
	<path class="st1" d="M6.17,96.23c0.31-1.49,2.2-4.76,4.19-7.51c1.15-1.55,2.59-3.46,3.46-4.47c0.28-0.84-0.03-1.6,0.53-2.34
		c0.34-0.45,1.1-0.62,1.86-0.62c0.25-0.31,1.13-1.38,1.91-2.31c1.58-1.89,2.76-2.98,4.73-4.53c1.63-1.24,3.94-2.79,6.19-2.79
		c2.28,0,3.66,1.44,3.46,2.98c-0.06,0.37-0.2,0.62-0.28,0.59c-0.06-0.03,0.06-0.23,0.08-0.59c0.08-1.21-1.24-2.25-3.35-2.25
		c-2.73,0-4.31,0.98-5.8,2.34c-1.18,1.1-2.95,3.15-4.76,5.6c-0.2,0.25-0.7,0.93-0.7,0.93c1.15-0.03,2.08-0.03,2.17-0.03
		c0.25,0,0.53,0,0.51,0.14c-0.03,0.17-0.25,0.17-0.56,0.17c-0.14,0-1.13,0-2.36,0.03c-0.7,0.9-3.21,4.02-3.21,4.02
		c-0.45,1.49-1.41,4.25-3.12,7.12c-0.93,1.58-2.2,3.35-3.29,4.17c-0.45,0.34-0.87,0.53-1.24,0.45C6.23,97.24,6.03,96.93,6.17,96.23z
		 M7.86,96.48c0.7-0.56,1.89-2,3.1-4.05c1.27-2.11,2.22-4.56,2.84-6.36c-1.77,2.31-2.5,3.32-3.94,5.52
		c-0.96,1.49-2.25,3.43-2.7,4.47c-0.14,0.37-0.17,0.62,0,0.7C7.32,96.85,7.6,96.71,7.86,96.48z M14.22,83.79l1.77-2.2
		c-0.59,0-1.13,0.17-1.35,0.42c-0.48,0.56-0.28,1.18-0.45,1.77H14.22z"/>
	<path class="st1" d="M18.36,83.56c-0.2,0.17-0.31,0.23-0.37,0.17c-0.06-0.08,0.08-0.23,0.2-0.34c0.2-0.2,0.59-0.51,0.87-0.7
		c0.37-0.25,0.76-0.51,1.35-0.82c0.82-0.42,1.69-0.73,2.34-0.76c0.2,0,0.42,0,0.42,0.11c0,0.06-0.08,0.06-0.31,0.17
		c-0.68,0.31-1.24,0.79-2.03,1.55c-0.82,0.82-1.58,1.91-1.63,2.48c-0.03,0.28,0.08,0.48,0.39,0.48c0.62,0,1.74-0.76,2.62-1.72
		c0.03-0.28,0.14-0.7,0.51-1.18c0.31-0.42,0.7-0.65,0.9-0.73c0.08-0.2,0.08-0.51,0.08-0.65c0-0.31-0.11-0.39-0.03-0.45
		c0.11-0.06,0.28,0.06,0.39,0.17c0.23,0.23,0.39,0.56,0.34,0.98c-0.08,0.68-0.73,1.49-1.6,2.28c0.11,0.06,0.42,0.03,0.53,0
		c0.25-0.06,0.56-0.2,0.96-0.48c0.37-0.25,0.59-0.45,0.9-0.73c0.25-0.23,0.39-0.37,0.48-0.28c0.08,0.08-0.08,0.25-0.37,0.51
		c-0.25,0.23-0.53,0.48-0.9,0.73c-0.45,0.31-0.79,0.45-1.07,0.51c-0.25,0.06-0.59,0.06-0.76-0.06c-0.73,0.56-2.05,1.38-3.21,1.38
		c-0.87,0-1.41-0.42-1.38-1.24c0.03-0.56,0.37-1.24,0.9-1.8l-0.03-0.03C18.67,83.28,18.55,83.4,18.36,83.56z"/>
	<path class="st1" d="M30.09,81.88c0,0.37-0.68,0.96-1.29,1.69c-0.48,0.56-0.82,1.04-0.96,1.32c-0.14,0.25-0.14,0.45-0.03,0.53
		c0.11,0.08,0.31,0.06,0.62-0.11s0.82-0.48,1.27-0.84c0.62-0.48,0.96-0.76,1.32-1.1c0.2-0.2,0.37-0.28,0.42-0.23
		c0.08,0.08-0.11,0.25-0.34,0.48c-0.34,0.31-0.9,0.82-1.6,1.35c-0.59,0.45-1.58,1.13-2.5,1.13c-0.59,0-0.9-0.31-0.87-0.73
		c0.03-0.62,0.73-1.41,1.35-2c0.68-0.65,1.74-1.41,1.83-1.6c0.11-0.31-0.42-0.22-1.13-0.22c-0.28,0-0.51,0-0.65-0.06
		c-0.23,0.25-0.62,0.65-1.07,1.07c-0.48,0.45-0.82,0.76-1.13,1.04c-0.25,0.23-0.37,0.28-0.42,0.23c-0.06-0.06,0.03-0.2,0.31-0.45
		c0.34-0.31,0.59-0.53,1.1-1.01c0.39-0.37,0.76-0.73,0.98-0.98c-0.25-0.17-0.28-0.56,0-0.9c0.23-0.28,0.62-0.48,1.07-0.48
		c0.23,0,0.48,0.11,0.51,0.28c-0.2,0.14-0.31,0.23-0.48,0.39c-0.37,0.39-0.28,0.59,0.08,0.62c0.79,0.03,1.6,0.06,1.6,0.56V81.88z"/>
	<path class="st1" d="M35.49,83.54c-0.2,0.17-0.28,0.2-0.34,0.14c-0.06-0.06,0-0.17,0.2-0.34c0.76-0.68,1.52-1.35,2.05-1.83
		c-0.37,0-0.68,0.03-1.01,0.03c-0.2,0-0.34,0-0.31-0.14c0.03-0.11,0.31-0.14,0.76-0.17c0.37-0.03,0.68-0.03,0.79-0.03
		c0.87-1.07,2-2.31,2.65-2.93c0.51-0.51,1.18-1.15,1.77-1.15c0.28,0,0.39,0.08,0.42,0.17c-0.34,0.31-1.07,1.1-1.72,1.83
		c-0.65,0.73-1.15,1.35-1.72,2.08c0.65-0.03,1.15-0.03,1.6-0.03c0.23,0,0.42,0.03,0.39,0.17c-0.03,0.17-0.28,0.14-0.51,0.14
		c-0.62,0-1.07,0-1.72,0.03c-0.56,0.68-1.52,2.11-2.03,3.1c-0.17,0.31-0.25,0.7-0.03,0.82c0.17,0.08,0.48,0,0.7-0.11
		c0.34-0.17,0.82-0.48,1.27-0.84c0.51-0.39,0.99-0.84,1.32-1.13c0.14-0.11,0.31-0.28,0.39-0.2c0.06,0.06,0,0.14-0.2,0.34
		c-0.31,0.31-1.13,1.04-1.72,1.49c-0.51,0.39-1.52,1.15-2.59,1.15c-0.65,0-0.87-0.37-0.84-0.79c0.06-0.7,0.7-1.72,1.52-2.79
		C36.17,82.92,35.83,83.23,35.49,83.54z"/>
	<path class="st1" d="M44.92,86.1c-0.56,0-0.87-0.25-0.84-0.73c0.03-0.62,0.65-1.32,1.18-1.97c0.42-0.51,0.84-0.96,1.18-1.38
		c0.11-0.14,0.17-0.31,0.03-0.39c-0.14-0.08-0.45,0.03-0.73,0.17c-0.51,0.25-1.29,0.73-2.2,1.44c-1.24,0.96-1.91,1.6-3.15,2.56
		c-0.25,0.2-0.42,0.25-0.73,0.25c-0.39,0-0.56-0.06-0.37-0.45c0.28-0.53,0.68-1.18,1.15-1.89c0.23-0.34,0.51-0.7,0.84-1.13v-0.03
		c-0.42,0.37-0.76,0.68-1.07,0.96c-0.17,0.14-0.25,0.17-0.31,0.08c-0.03-0.08,0.06-0.17,0.14-0.25c0.11-0.11,1.18-1.04,1.83-1.58
		c0.96-1.27,2.14-2.79,3.41-4.22c1.63-1.89,5.07-5.49,6.53-6.5c0.79-0.56,1.58-1.13,2.39-1.13c0.73,0,0.96,0.51,0.87,1.01
		c-0.23,1.35-2.93,3.6-5.77,5.97c-1.72,1.41-3.66,2.76-5.74,4.59c-0.48,0.53-1.66,2.25-2.34,3.24l0.03,0.03
		c0.68-0.56,1.6-1.38,2.59-2.11c0.99-0.73,2.22-1.52,3.07-1.52c0.59,0,0.93,0.28,0.87,0.76c-0.08,0.51-0.68,1.15-1.13,1.72
		c-0.45,0.53-0.76,0.96-0.93,1.24c-0.2,0.34-0.23,0.53-0.11,0.62c0.14,0.11,0.45,0,0.68-0.11c0.34-0.17,0.7-0.37,1.35-0.87
		c0.48-0.37,1.04-0.87,1.35-1.15c0.23-0.2,0.31-0.23,0.37-0.17c0.06,0.06-0.03,0.17-0.23,0.37c-0.25,0.25-1.1,1.01-1.69,1.46
		C46.89,85.39,45.8,86.1,44.92,86.1z M49.06,76.58c2.7-2.34,5.21-4.59,5.32-5.83c0.03-0.37-0.17-0.53-0.48-0.53
		c-0.48,0-1.24,0.56-1.83,1.13c-0.93,0.93-2.28,2.28-3.74,4.02c-2.05,2.45-2.79,3.35-4.31,5.38C46.7,78.41,47.77,77.71,49.06,76.58z
		"/>
	<path class="st1" d="M53.22,84.72c0.53-0.37,1.18-0.87,1.72-1.35c0.17-0.14,0.25-0.17,0.31-0.11c0.06,0.08-0.06,0.23-0.23,0.37
		c-0.37,0.34-1.27,1.07-1.77,1.41c-1.18,0.79-2.22,1.15-3.18,1.15c-1.04,0-1.52-0.39-1.49-1.13c0.03-0.56,0.28-1.07,0.84-1.74
		l-0.03-0.03c-0.08,0.08-0.39,0.37-0.56,0.51c-0.14,0.11-0.23,0.14-0.28,0.08c-0.06-0.08,0.06-0.2,0.17-0.31
		c0.37-0.34,0.62-0.53,1.04-0.84c0.31-0.23,0.84-0.56,1.38-0.84c0.82-0.42,1.66-0.79,2.42-0.79h0.03c0.62,0,0.84,0.39,0.82,0.76
		c-0.06,0.73-0.96,1.29-1.8,1.72c-0.82,0.39-1.77,0.73-2.42,0.9c-0.11,0.23-0.17,0.48-0.17,0.65c0,0.42,0.23,0.65,0.65,0.65
		C51.03,85.76,51.99,85.56,53.22,84.72z M52.27,83.31c0.7-0.48,1.13-1.07,1.15-1.46c0.03-0.25-0.08-0.39-0.34-0.39
		s-0.68,0.28-1.24,0.82c-0.45,0.42-1.15,1.32-1.49,1.89C50.92,84.01,51.68,83.7,52.27,83.31z"/>
	<path class="st1" d="M69.94,76.68c0,2.38-1.69,3.85-4.14,3.85h-3.39v5.2c0,0.13-0.08,0.21-0.22,0.21h-0.97
		c-0.14,0-0.22-0.07-0.22-0.21V73c0-0.13,0.08-0.21,0.22-0.21h4.57C68.23,72.8,69.94,74.26,69.94,76.68z M68.48,76.68
		c0-1.67-1.16-2.68-2.9-2.68h-3.17v5.37h3.17C67.32,79.36,68.48,78.31,68.48,76.68z"/>
	<path class="st1" d="M74.77,74v4.41h5.52c0.14,0,0.22,0.06,0.22,0.21v0.79c0,0.13-0.08,0.21-0.22,0.21h-5.52v5.12h6.5
		c0.12,0,0.2,0.06,0.2,0.21v0.79c0,0.13-0.08,0.21-0.2,0.21h-7.68c-0.14,0-0.22-0.07-0.22-0.21V73c0-0.13,0.08-0.21,0.22-0.21h7.68
		c0.12,0,0.2,0.08,0.2,0.21v0.79c0,0.15-0.08,0.21-0.2,0.21H74.77z"/>
	<path class="st1" d="M94.21,85.93h-1.16c-0.14,0-0.2-0.06-0.24-0.17l-2.5-5.1c-0.18-0.36-0.35-0.45-0.65-0.45h-3.17v5.52
		c0,0.13-0.08,0.21-0.22,0.21h-0.97c-0.14,0-0.22-0.07-0.22-0.21V73c0-0.13,0.08-0.21,0.22-0.21h4.49c2.58,0,4.3,1.43,4.3,3.68
		c0,1.8-1.06,3.08-2.76,3.55c0.16,0.07,0.3,0.24,0.41,0.51l2.56,5.22C94.37,85.85,94.35,85.93,94.21,85.93z M89.74,79.04
		c1.73,0,2.9-0.99,2.9-2.51c0-1.54-1.16-2.53-2.9-2.53h-3.25v5.05H89.74z"/>
	<path class="st1" d="M105.88,73v0.79c0,0.15-0.08,0.21-0.22,0.21h-6.27v4.71h5.28c0.14,0,0.24,0.06,0.24,0.21v0.79
		c0,0.13-0.1,0.21-0.24,0.21h-5.28v5.82c0,0.13-0.08,0.21-0.22,0.21h-0.97c-0.14,0-0.22-0.07-0.22-0.21V73
		c0-0.13,0.08-0.21,0.22-0.21h7.45C105.8,72.8,105.88,72.87,105.88,73z"/>
	<path class="st1" d="M108.04,79.36c0-4.05,2.52-6.75,6.27-6.75c3.74,0,6.27,2.7,6.27,6.75c0,4.05-2.52,6.75-6.27,6.75
		C110.56,86.12,108.04,83.41,108.04,79.36z M119.12,79.36c0-3.32-1.95-5.53-4.79-5.53c-2.88,0-4.83,2.21-4.83,5.53
		c0,3.32,1.97,5.53,4.83,5.53C117.16,84.9,119.12,82.68,119.12,79.36z"/>
	<path class="st1" d="M133.48,85.93h-1.16c-0.14,0-0.2-0.06-0.24-0.17l-2.5-5.1c-0.18-0.36-0.35-0.45-0.65-0.45h-3.17v5.52
		c0,0.13-0.08,0.21-0.22,0.21h-0.97c-0.14,0-0.22-0.07-0.22-0.21V73c0-0.13,0.08-0.21,0.22-0.21h4.49c2.58,0,4.3,1.43,4.3,3.68
		c0,1.8-1.06,3.08-2.76,3.55c0.16,0.07,0.3,0.24,0.41,0.51l2.56,5.22C133.63,85.85,133.61,85.93,133.48,85.93z M129,79.04
		c1.73,0,2.9-0.99,2.9-2.51c0-1.54-1.16-2.53-2.9-2.53h-3.25v5.05H129z"/>
	<path class="st1" d="M149.65,73v12.72c0,0.13-0.08,0.21-0.22,0.21h-0.95c-0.16,0-0.22-0.07-0.22-0.21V75.61l-0.35,0.79l-4.02,6.62
		c-0.08,0.13-0.18,0.21-0.3,0.21h-0.28c-0.14,0-0.24-0.08-0.32-0.21l-4-6.62l-0.35-0.79v10.11c0,0.13-0.08,0.21-0.22,0.21h-0.97
		c-0.14,0-0.22-0.07-0.22-0.21V73c0-0.13,0.08-0.21,0.22-0.21h0.61c0.16,0,0.24,0.09,0.32,0.21l5.06,8.39l5.06-8.39
		c0.06-0.11,0.16-0.21,0.3-0.21h0.61C149.57,72.8,149.65,72.87,149.65,73z"/>
	<path class="st1" d="M154.26,85.72V73c0-0.13,0.08-0.21,0.22-0.21h0.97c0.14,0,0.22,0.08,0.22,0.21v12.72
		c0,0.13-0.08,0.21-0.22,0.21h-0.97C154.34,85.93,154.26,85.85,154.26,85.72z"/>
	<path class="st1" d="M160.27,85.72V73c0-0.13,0.08-0.21,0.22-0.21h0.79c0.16,0,0.24,0.09,0.32,0.21l6.54,9.44l0.65,1.09V73
		c0-0.13,0.08-0.21,0.22-0.21h0.99c0.14,0,0.2,0.08,0.2,0.21v12.72c0,0.13-0.06,0.21-0.2,0.21h-0.77c-0.18,0-0.26-0.09-0.32-0.21
		l-6.56-9.47l-0.67-1.09v10.56c0,0.13-0.08,0.21-0.22,0.21h-0.97C160.35,85.93,160.27,85.85,160.27,85.72z"/>
	<path class="st1" d="M185.82,79.27v4.13c-0.83,1.73-2.9,2.72-5.6,2.72c-3.74,0-6.27-2.7-6.27-6.75c0-4.05,2.52-6.75,6.27-6.75
		c2.86,0,4.95,1.63,5.5,4.15c0.04,0.15-0.02,0.19-0.16,0.19h-1.02c-0.18,0-0.22-0.06-0.26-0.19c-0.59-1.82-1.99-2.93-4.04-2.93
		c-2.88,0-4.83,2.21-4.83,5.53c0,3.32,1.97,5.53,4.83,5.53c1.89,0,3.37-0.71,4.18-1.74v-2.87h-4.22c-0.14,0-0.22-0.07-0.22-0.19
		v-0.83c0-0.13,0.08-0.19,0.22-0.19h5.4C185.72,79.08,185.82,79.14,185.82,79.27z"/>
	<path class="st1" d="M204.46,85.93h-1.16c-0.16,0-0.2-0.07-0.24-0.21l-0.97-2.48h-6.7l-0.97,2.48c-0.06,0.13-0.1,0.21-0.24,0.21
		h-1.1c-0.14,0-0.2-0.07-0.16-0.21l5.2-12.72c0.06-0.15,0.12-0.21,0.26-0.21h0.77c0.16,0,0.22,0.06,0.26,0.19l5.18,12.74
		C204.63,85.85,204.6,85.93,204.46,85.93z M201.64,82.1l-2.56-6.55l-0.32-1.13l-0.34,1.13l-2.58,6.55H201.64z"/>
	<path class="st1" d="M216.79,85.93h-1.16c-0.14,0-0.2-0.06-0.24-0.17l-2.5-5.1c-0.18-0.36-0.35-0.45-0.65-0.45h-3.17v5.52
		c0,0.13-0.08,0.21-0.22,0.21h-0.97c-0.14,0-0.22-0.07-0.22-0.21V73c0-0.13,0.08-0.21,0.22-0.21h4.49c2.58,0,4.3,1.43,4.3,3.68
		c0,1.8-1.06,3.08-2.76,3.55c0.16,0.07,0.3,0.24,0.41,0.51l2.56,5.22C216.95,85.85,216.93,85.93,216.79,85.93z M212.32,79.04
		c1.73,0,2.9-0.99,2.9-2.51c0-1.54-1.16-2.53-2.9-2.53h-3.25v5.05H212.32z"/>
	<path class="st1" d="M228.63,73v0.79c0,0.15-0.06,0.21-0.2,0.21h-4.04v11.73c0,0.13-0.08,0.21-0.22,0.21h-0.97
		c-0.16,0-0.22-0.07-0.22-0.21V74h-3.98c-0.14,0-0.22-0.06-0.22-0.21V73c0-0.13,0.08-0.21,0.22-0.21h9.42
		C228.57,72.8,228.63,72.87,228.63,73z"/>
	<path class="st1" d="M230.44,82.4c-0.02-0.15,0.06-0.19,0.2-0.19h1.02c0.12,0,0.18,0.06,0.22,0.19c0.12,0.66,0.41,1.16,0.81,1.56
		c0.65,0.64,1.62,0.94,2.68,0.94c1.77,0,2.97-0.83,2.97-2.29c0-1.59-1.54-2.25-3.31-2.87c-1.12-0.41-2.21-0.77-2.99-1.46
		c-0.59-0.53-0.98-1.26-0.98-2.25c0-2.1,1.69-3.41,4.08-3.41c2.48,0,4.14,1.35,4.39,3.7c0.02,0.13-0.04,0.19-0.18,0.19h-1.02
		c-0.14,0-0.2-0.06-0.22-0.19c-0.1-0.84-0.45-1.5-1.06-1.93c-0.47-0.36-1.14-0.54-1.91-0.54c-1.56,0-2.62,0.83-2.62,2.1
		c0,1.54,1.5,2.04,3.09,2.61c1.99,0.71,4.2,1.48,4.2,4c0,2.25-1.75,3.58-4.39,3.58C232.73,86.12,230.74,84.75,230.44,82.4z"/>
</g>
<g>
	<g>
		<g>
			<path class="st1" d="M94.41,12.8l-3.25,7.8h-1.28l-3.26-7.8h2.35l1.1,2.87l0.54,1.69l0.52-1.69l1.03-2.87H94.41z"/>
			<path class="st1" d="M95.84,12.8h2.13v7.8h-2.13V12.8z"/>
			<path class="st1" d="M106.69,14.66h-2.53v5.93h-2.12v-5.93h-2.5V12.8h7.14V14.66z"/>
			<path class="st1" d="M113.91,18.77v1.83h-5.66v-7.8h5.63v1.84h-3.54v1.11h3.11v1.81h-3.11v1.21H113.91z"/>
			<path class="st1" d="M118.61,18.6h-0.91v2h-2.07v-7.8h3.27c2.01,0,3.19,1.26,3.19,2.95c0,1.09-0.55,1.94-1.48,2.43l1.69,2.42
				h-2.42L118.61,18.6z M117.7,16.84h1.03c0.77,0,1.24-0.49,1.24-1.11c0-0.65-0.45-1.16-1.28-1.16h-1V16.84z"/>
			<path class="st1" d="M130.3,18.35c0,1.39-0.89,2.24-3.13,2.24h-3.33v-7.8h3.21c2.1,0,2.95,0.88,2.95,2.11
				c0,0.75-0.48,1.34-1.23,1.59C129.89,16.74,130.3,17.51,130.3,18.35z M127,14.4h-1.13v1.52h1.14c0.65,0,0.99-0.28,0.99-0.77
				C128,14.69,127.66,14.4,127,14.4z M128.27,18.2c0-0.52-0.33-0.78-1.09-0.78h-1.31V19h1.31C127.91,19,128.27,18.69,128.27,18.2z"
				/>
			<path class="st1" d="M131.39,16.67c0-2.3,1.79-4.05,4.2-4.05c2.4,0,4.16,1.7,4.16,4.05c0,2.33-1.76,4.06-4.16,4.06
				C133.18,20.73,131.39,18.95,131.39,16.67z M137.59,16.67c0-1.25-0.84-2.13-2-2.13c-1.18,0-2.04,0.89-2.04,2.13
				c0,1.22,0.87,2.14,2.04,2.14C136.75,18.81,137.59,17.9,137.59,16.67z"/>
		</g>
		<g>
			<path class="st1" d="M141.64,17.62v-4.59c0-0.08,0.04-0.12,0.12-0.12h0.53c0.08,0,0.12,0.04,0.12,0.12v4.58
				c0,1.46,0.74,2.28,1.96,2.28c1.23,0,1.97-0.82,1.97-2.28v-4.58c0-0.08,0.04-0.12,0.12-0.12h0.52c0.08,0,0.11,0.04,0.11,0.12v4.57
				c0,1.88-1.04,3-2.72,3C142.7,20.6,141.64,19.48,141.64,17.62z"/>
			<path class="st1" d="M149.24,20.37v-7.34c0-0.08,0.04-0.12,0.12-0.12h0.43c0.09,0,0.13,0.05,0.17,0.12l3.6,5.45l0.36,0.63v-6.08
				c0-0.08,0.04-0.12,0.12-0.12h0.54c0.08,0,0.11,0.04,0.11,0.12v7.34c0,0.08-0.03,0.12-0.11,0.12h-0.42c-0.1,0-0.14-0.05-0.17-0.12
				l-3.61-5.47l-0.37-0.63v6.1c0,0.08-0.04,0.12-0.12,0.12h-0.53C149.29,20.49,149.24,20.44,149.24,20.37z"/>
			<path class="st1" d="M156.93,20.37v-7.34c0-0.08,0.04-0.12,0.12-0.12h0.53c0.08,0,0.12,0.04,0.12,0.12v7.34
				c0,0.08-0.04,0.12-0.12,0.12h-0.53C156.98,20.49,156.93,20.44,156.93,20.37z"/>
			<path class="st1" d="M165.48,13.03l-2.82,7.34c-0.02,0.08-0.08,0.12-0.15,0.12h-0.43c-0.09,0-0.13-0.04-0.16-0.11l-2.82-7.35
				c-0.02-0.05-0.02-0.08,0-0.1c0.02-0.02,0.06-0.02,0.1-0.02h0.63c0.06,0,0.1,0.04,0.13,0.12l2.2,5.87l0.16,0.58l0.15-0.58
				l2.19-5.87c0.02-0.08,0.05-0.12,0.13-0.12h0.61c0.04,0,0.06,0.01,0.09,0.03C165.5,12.95,165.5,12.97,165.48,13.03z"/>
			<path class="st1" d="M167.63,13.6v2.54h3.03c0.08,0,0.12,0.03,0.12,0.12v0.45c0,0.08-0.04,0.12-0.12,0.12h-3.03v2.96h3.57
				c0.06,0,0.11,0.03,0.11,0.12v0.45c0,0.08-0.04,0.12-0.11,0.12h-4.22c-0.08,0-0.12-0.04-0.12-0.12v-7.34
				c0-0.08,0.04-0.12,0.12-0.12h4.22c0.06,0,0.11,0.04,0.11,0.12v0.45c0,0.09-0.04,0.12-0.11,0.12H167.63z"/>
			<path class="st1" d="M178.03,20.49h-0.64c-0.08,0-0.11-0.03-0.13-0.1l-1.38-2.95c-0.1-0.21-0.19-0.26-0.36-0.26h-1.74v3.18
				c0,0.08-0.04,0.12-0.12,0.12h-0.53c-0.08,0-0.12-0.04-0.12-0.12v-7.34c0-0.08,0.04-0.12,0.12-0.12h2.47
				c1.42,0,2.36,0.82,2.36,2.12c0,1.04-0.58,1.78-1.52,2.05c0.09,0.04,0.16,0.14,0.23,0.29l1.41,3.01
				C178.12,20.44,178.11,20.49,178.03,20.49z M175.57,16.51c0.95,0,1.59-0.57,1.59-1.45c0-0.89-0.64-1.46-1.59-1.46h-1.79v2.91
				H175.57z"/>
			<path class="st1" d="M179.21,18.45c-0.01-0.09,0.03-0.11,0.11-0.11h0.56c0.06,0,0.1,0.03,0.12,0.11c0.06,0.38,0.23,0.67,0.44,0.9
				c0.36,0.37,0.89,0.54,1.47,0.54c0.97,0,1.64-0.48,1.64-1.32c0-0.92-0.84-1.3-1.82-1.66c-0.62-0.24-1.21-0.44-1.65-0.84
				c-0.32-0.3-0.54-0.73-0.54-1.3c0-1.21,0.93-1.97,2.24-1.97c1.36,0,2.27,0.78,2.42,2.13c0.01,0.08-0.02,0.11-0.1,0.11h-0.56
				c-0.08,0-0.11-0.03-0.12-0.11c-0.05-0.49-0.25-0.87-0.58-1.12c-0.26-0.21-0.63-0.31-1.05-0.31c-0.86,0-1.44,0.48-1.44,1.21
				c0,0.89,0.82,1.18,1.7,1.51c1.09,0.41,2.31,0.86,2.31,2.31c0,1.3-0.96,2.07-2.41,2.07C180.47,20.6,179.37,19.8,179.21,18.45z"/>
			<path class="st1" d="M186.12,20.37v-7.34c0-0.08,0.04-0.12,0.12-0.12h0.53c0.08,0,0.12,0.04,0.12,0.12v7.34
				c0,0.08-0.04,0.12-0.12,0.12h-0.53C186.16,20.49,186.12,20.44,186.12,20.37z"/>
			<path class="st1" d="M193.71,13.03v0.45c0,0.09-0.03,0.12-0.11,0.12h-2.22v6.77c0,0.08-0.04,0.12-0.12,0.12h-0.53
				c-0.09,0-0.12-0.04-0.12-0.12V13.6h-2.19c-0.08,0-0.12-0.03-0.12-0.12v-0.45c0-0.08,0.04-0.12,0.12-0.12h5.18
				C193.68,12.91,193.71,12.95,193.71,13.03z"/>
			<path class="st1" d="M200.33,13.03l-2.64,4.33v3.01c0,0.08-0.03,0.12-0.11,0.12h-0.53c-0.08,0-0.12-0.04-0.12-0.12v-3.03
				l-2.63-4.31c-0.05-0.09,0.03-0.12,0.09-0.12h0.64c0.08,0,0.11,0.04,0.15,0.12l1.92,3.08l0.25,0.51l0.23-0.51l1.89-3.08
				c0.04-0.08,0.09-0.12,0.15-0.12h0.63C200.33,12.91,200.37,12.96,200.33,13.03z"/>
		</g>
	</g>
	<g>
		<path class="st2" d="M67.85,3.89c-7.2-0.01-12.73,5.73-12.89,12.51c-0.17,7.19,5.6,13.13,12.82,13.14
			c7.06,0,12.81-5.74,12.82-12.81C80.6,9.66,74.87,3.9,67.85,3.89z"/>
		<g>
			<path class="st0" d="M67.86,1.45C59.29,1.43,52.7,8.27,52.51,16.34c-0.2,8.56,6.67,15.63,15.27,15.64
				c8.41,0,15.26-6.84,15.26-15.25C83.04,8.32,76.22,1.46,67.86,1.45z M71.47,12.83h2.21v1.3l-2.21,3.16V12.83z M66.82,6.23
				c0.02-0.24,0.81,1.6,0.04,2.02c-0.92,0.51-0.21,1.57,0.42,2.3c-0.12-0.29-0.23-0.61-0.23-0.78c0-0.23,0.1-0.69,0.33-0.77
				c0.49-0.16,0.19-1.22,0.32-1.09c1.2,1.19,0.97,2.12,0.57,2.68h0.05c0.61-0.64,1.18-1.71,0.57-2.8c-0.27-0.49-0.81-0.74-1.07-0.96
				c-0.26-0.22-0.29-0.58,0.03-0.98c0.32-0.4,0.46-1.13,0.46-1.13c0.1,0.86,1.48,1.92,1.77,2.31c0.29,0.4,0.65,1.06,0.36,2.25
				c-0.15,0.61-0.44,1.02-0.75,1.3h1.71l-0.54,1.18l-6.16,0l-0.55-1.18h1.91C63.82,8.6,66.75,7.01,66.82,6.23z M70.35,19.08
				l-2.58,3.56l-2.58-3.56l0.02-6.25h5.11L70.35,19.08z M61.86,12.83h2.21v4.46l-2.21-3.16V12.83z M61.86,22.81v-1.76
				c1.4,1.99,2.89,4.12,4.13,5.91C61.68,26.15,61.86,22.81,61.86,22.81z M69.56,26.97c1.24-1.79,2.72-3.92,4.13-5.91v1.76
				C73.68,22.81,73.86,26.15,69.56,26.97z M67.77,27.97L57.24,12.83h2.5l8.03,11.51l8.03-11.51h2.5L67.77,27.97z"/>
			<polygon class="st0" points="67.77,21.23 68.78,19.55 66.77,19.55 			"/>
			<path class="st0" d="M66.33,15.48h0.79c0.06,0.09,0.14,0.17,0.23,0.23v2.7h0.84v-2.7c0.09-0.06,0.17-0.14,0.23-0.23h0.79v-0.84
				h-0.79c-0.06-0.09-0.14-0.17-0.23-0.23v-0.6h-0.84v0.6c-0.09,0.06-0.17,0.14-0.23,0.23h-0.79V15.48z M67.42,15.06
				c0-0.19,0.16-0.35,0.35-0.35c0.19,0,0.35,0.16,0.35,0.35s-0.16,0.35-0.35,0.35C67.58,15.41,67.42,15.25,67.42,15.06z"/>
		</g>
	</g>
</g>
</svg>
