<?xml version="1.0" encoding="utf-8"?>
<!-- Generator: Adobe Illustrator 26.0.1, SVG Export Plug-In . SVG Version: 6.00 Build 0)  -->
<svg version="1.1" id="Layer_1" xmlns="http://www.w3.org/2000/svg" xmlns:xlink="http://www.w3.org/1999/xlink" x="0px" y="0px"
	 viewBox="0 0 252 72" style="enable-background:new 0 0 252 72;" xml:space="preserve">
<style type="text/css">
	.st0{clip-path:url(#SVGID_00000020401086694711153870000014463867824449970352_);fill:#57523C;}
</style>
<g>
	<defs>
		<rect id="SVGID_1_" x="6.17" y="11.08" width="239.56" height="51.61"/>
	</defs>
	<clipPath id="SVGID_00000062155384274920168940000009483298877299807911_">
		<use xlink:href="#SVGID_1_"  style="overflow:visible;"/>
	</clipPath>
	<path style="clip-path:url(#SVGID_00000062155384274920168940000009483298877299807911_);fill:#57523C;" d="M196.01,62.16
		c0.43,0.29,1.29,0.52,2.07,0.52c1.92,0,2.84-1.08,2.84-2.34c0-1.19-0.7-1.86-2.07-2.39c-1.12-0.43-1.62-0.81-1.62-1.57
		c0-0.55,0.42-1.22,1.53-1.22c0.74,0,1.28,0.24,1.54,0.39l0.29-0.86c-0.36-0.2-0.96-0.4-1.8-0.4c-1.58,0-2.63,0.94-2.63,2.21
		c0,1.14,0.82,1.83,2.15,2.3c1.1,0.42,1.53,0.86,1.53,1.62c0,0.82-0.63,1.39-1.7,1.39c-0.72,0-1.41-0.24-1.88-0.53L196.01,62.16z
		 M189.48,62.56v-3.47c0-1.35-0.02-2.33-0.08-3.35l0.04-0.01c0.41,0.88,0.95,1.81,1.52,2.71l2.58,4.12h1.06v-8.12h-0.99v3.4
		c0,1.27,0.02,2.25,0.12,3.34l-0.02,0.01c-0.39-0.83-0.86-1.69-1.46-2.64l-2.6-4.11h-1.14v8.12H189.48z M185.61,62.56h1.05v-8.12
		h-1.05V62.56z M179.07,62.56h1.05v-3.1l0.77-0.89l2.68,3.99h1.24l-3.17-4.68l2.94-3.45h-1.3l-2.48,3.05
		c-0.2,0.27-0.42,0.55-0.64,0.87h-0.04v-3.92h-1.05V62.56z M172.13,62.56v-3.47c0-1.35-0.02-2.33-0.08-3.35l0.04-0.01
		c0.41,0.88,0.95,1.81,1.52,2.71l2.58,4.12h1.06v-8.12h-0.99v3.4c0,1.27,0.02,2.25,0.12,3.34l-0.02,0.01
		c-0.39-0.83-0.86-1.69-1.46-2.64l-2.6-4.11h-1.14v8.12H172.13z M169.42,57.88h-3.16v-2.57h3.34v-0.88h-4.39v8.12h4.57v-0.88h-3.52
		v-2.93h3.16V57.88z M162.42,59.79c0,1.59-0.55,2.01-1.49,2.01c-0.35,0-0.66-0.07-0.88-0.16l-0.16,0.86
		c0.27,0.11,0.74,0.19,1.12,0.19c1.4,0,2.46-0.66,2.46-2.82v-5.44h-1.05V59.79z M156.74,59.69h2.98v-0.78h-2.98V59.69z
		 M150.88,62.16c0.43,0.29,1.29,0.52,2.07,0.52c1.92,0,2.84-1.08,2.84-2.34c0-1.19-0.7-1.86-2.07-2.39
		c-1.12-0.43-1.62-0.81-1.62-1.57c0-0.55,0.42-1.22,1.53-1.22c0.74,0,1.28,0.24,1.54,0.39l0.29-0.86c-0.36-0.2-0.96-0.4-1.8-0.4
		c-1.58,0-2.63,0.94-2.63,2.21c0,1.14,0.82,1.83,2.15,2.3c1.1,0.42,1.53,0.86,1.53,1.62c0,0.82-0.63,1.39-1.7,1.39
		c-0.72,0-1.41-0.24-1.88-0.53L150.88,62.16z M145.81,58.67h0.87c1.15,0,2.1,0.46,2.1,1.57c0,1.18-1,1.58-2.09,1.58
		c-0.37,0-0.67-0.01-0.88-0.05V58.67z M145.81,55.26c0.17-0.04,0.45-0.07,0.93-0.07c1.06,0,1.78,0.37,1.78,1.33
		c0,0.78-0.65,1.36-1.76,1.36h-0.95V55.26z M144.76,62.54c0.35,0.05,0.9,0.1,1.63,0.1c1.33,0,2.24-0.24,2.81-0.76
		c0.41-0.4,0.69-0.93,0.69-1.63c0-1.21-0.9-1.84-1.68-2.04v-0.02c0.86-0.31,1.37-1,1.37-1.78c0-0.64-0.25-1.12-0.67-1.43
		c-0.51-0.41-1.18-0.59-2.23-0.59c-0.74,0-1.46,0.07-1.92,0.17V62.54z M139.7,55.16c1.75,0,2.59,1.69,2.59,3.3
		c0,1.84-0.94,3.37-2.6,3.37c-1.65,0-2.59-1.55-2.59-3.29C137.1,56.76,137.96,55.16,139.7,55.16 M139.75,54.3
		c-2.17,0-3.77,1.69-3.77,4.27c0,2.46,1.51,4.12,3.65,4.12c2.07,0,3.77-1.48,3.77-4.28C143.4,56,141.97,54.3,139.75,54.3
		 M135.18,61.46c-0.42,0.2-1.07,0.34-1.71,0.34c-1.98,0-3.12-1.28-3.12-3.27c0-2.13,1.27-3.35,3.17-3.35c0.67,0,1.24,0.14,1.64,0.34
		l0.25-0.86c-0.28-0.14-0.92-0.36-1.93-0.36c-2.52,0-4.24,1.72-4.24,4.27c0,2.66,1.72,4.11,4.01,4.11c0.99,0,1.76-0.19,2.15-0.39
		L135.18,61.46z M124.06,59.19l0.8-2.35c0.16-0.49,0.29-0.99,0.41-1.47h0.02c0.12,0.47,0.24,0.95,0.42,1.48l0.8,2.34H124.06z
		 M126.72,60.01l0.87,2.56h1.12l-2.77-8.12h-1.27l-2.76,8.12H123l0.84-2.56H126.72z M119.73,59.79c0,1.59-0.55,2.01-1.49,2.01
		c-0.35,0-0.66-0.07-0.88-0.16l-0.16,0.86c0.27,0.11,0.74,0.19,1.12,0.19c1.4,0,2.46-0.66,2.46-2.82v-5.44h-1.05V59.79z
		 M108.57,62.56v-3.47c0-1.35-0.02-2.33-0.08-3.35l0.04-0.01c0.41,0.88,0.95,1.81,1.52,2.71l2.58,4.12h1.06v-8.12h-0.99v3.4
		c0,1.27,0.02,2.25,0.12,3.34l-0.02,0.01c-0.39-0.83-0.86-1.69-1.46-2.64l-2.6-4.11h-1.14v8.12H108.57z M105.86,57.88h-3.16v-2.57
		h3.34v-0.88h-4.39v8.12h4.57v-0.88h-3.52v-2.93h3.16V57.88z M94.67,55.32c0.28-0.06,0.69-0.11,1.23-0.11c2.22,0,3.3,1.22,3.29,3.13
		c0,2.19-1.22,3.45-3.46,3.45c-0.41,0-0.8-0.01-1.06-0.06V55.32z M93.62,62.54c0.53,0.06,1.16,0.1,1.9,0.1
		c1.58,0,2.83-0.41,3.59-1.17c0.76-0.75,1.17-1.83,1.17-3.16c0-1.31-0.42-2.25-1.14-2.92c-0.71-0.66-1.78-1.01-3.29-1.01
		c-0.83,0-1.59,0.07-2.23,0.17V62.54z M86.68,62.56v-3.47c0-1.35-0.02-2.33-0.08-3.35l0.04-0.01c0.41,0.88,0.95,1.81,1.52,2.71
		l2.58,4.12h1.06v-8.12H90.8v3.4c0,1.27,0.02,2.25,0.12,3.34l-0.02,0.01c-0.39-0.83-0.86-1.69-1.46-2.64l-2.6-4.11h-1.14v8.12H86.68
		z M79.85,59.19l0.8-2.35c0.16-0.49,0.29-0.99,0.41-1.47h0.02c0.12,0.47,0.24,0.95,0.42,1.48l0.8,2.34H79.85z M82.51,60.01
		l0.87,2.56h1.12l-2.77-8.12h-1.27l-2.76,8.12h1.08l0.84-2.56H82.51z M72.82,55.28c0.17-0.05,0.53-0.1,1.04-0.1
		c1.11,0.01,1.87,0.47,1.87,1.52c0,0.93-0.71,1.54-1.83,1.54h-1.07V55.28z M71.77,62.56h1.05v-3.52h0.99
		c0.95,0.04,1.39,0.46,1.63,1.58c0.23,1.01,0.41,1.71,0.54,1.94h1.08c-0.17-0.31-0.36-1.1-0.63-2.23c-0.19-0.84-0.57-1.42-1.19-1.64
		v-0.04c0.86-0.29,1.53-1,1.53-2.07c0-0.63-0.23-1.18-0.64-1.54c-0.51-0.46-1.23-0.66-2.35-0.66c-0.72,0-1.48,0.06-2.01,0.17V62.56z
		 M66.29,58.67h0.87c1.14,0,2.1,0.46,2.1,1.57c0,1.18-1,1.58-2.09,1.58c-0.37,0-0.67-0.01-0.88-0.05V58.67z M66.29,55.26
		c0.17-0.04,0.45-0.07,0.93-0.07c1.06,0,1.78,0.37,1.78,1.33c0,0.78-0.65,1.36-1.76,1.36h-0.95V55.26z M65.24,62.54
		c0.35,0.05,0.9,0.1,1.63,0.1c1.33,0,2.24-0.24,2.81-0.76c0.41-0.4,0.69-0.93,0.69-1.63c0-1.21-0.9-1.84-1.68-2.04v-0.02
		c0.86-0.31,1.37-1,1.37-1.78c0-0.64-0.25-1.12-0.67-1.43c-0.51-0.41-1.18-0.59-2.23-0.59c-0.74,0-1.46,0.07-1.92,0.17V62.54z
		 M59.03,62.56V59.1l2.72-4.66h-1.19l-1.17,2.24c-0.31,0.61-0.59,1.14-0.82,1.68h-0.02c-0.25-0.57-0.49-1.06-0.81-1.68l-1.14-2.24
		h-1.19l2.57,4.68v3.45H59.03z M50.86,58.67h0.87c1.14,0,2.1,0.46,2.1,1.57c0,1.18-1,1.58-2.09,1.58c-0.37,0-0.67-0.01-0.88-0.05
		V58.67z M50.86,55.26c0.17-0.04,0.45-0.07,0.93-0.07c1.06,0,1.78,0.37,1.78,1.33c0,0.78-0.65,1.36-1.76,1.36h-0.95V55.26z
		 M49.81,62.54c0.35,0.05,0.9,0.1,1.63,0.1c1.33,0,2.24-0.24,2.81-0.76c0.41-0.4,0.69-0.93,0.69-1.63c0-1.21-0.9-1.84-1.68-2.04
		v-0.02c0.86-0.31,1.37-1,1.37-1.78c0-0.64-0.25-1.12-0.67-1.43c-0.51-0.41-1.18-0.59-2.23-0.59c-0.74,0-1.46,0.07-1.92,0.17V62.54z
		"/>
	<path style="clip-path:url(#SVGID_00000062155384274920168940000009483298877299807911_);fill:#57523C;" d="M238.46,11.48
		c-0.71,2.02-1.54,4-2.47,5.93c-0.94,1.93-1.97,3.85-3.1,5.75c-1.22-1.87-2.27-3.8-3.14-5.77c-0.88-1.98-1.78-4.04-2.7-6.18
		l-7.89,2.68c1.52,3.03,3.17,5.77,4.97,8.23c1.8,2.45,3.59,4.78,5.37,6.98c0.09,4.85-0.09,9.81-0.54,14.89l5.17,0.58
		c1.19-5.11,2.01-10.42,2.45-15.92h0.04c0.86-1.04,1.72-2.21,2.56-3.5c0.85-1.29,1.66-2.63,2.45-4.01c0.79-1.38,1.53-2.76,2.23-4.15
		c0.7-1.38,1.32-2.7,1.85-3.95L238.46,11.48z M207.94,32.49c-0.52,1.34-1.16,2.42-1.92,3.26c-0.76,0.83-1.55,1.46-2.36,1.9
		c-0.82,0.43-1.54,0.75-2.16,0.96c0.51-2.97,0.86-5.94,1.07-8.9c0.21-2.96,0.36-5.92,0.45-8.9c0.8,0.15,1.55,0.42,2.23,0.8
		c0.68,0.39,1.29,0.88,1.81,1.47c0.52,0.59,0.93,1.26,1.23,1.98c0.3,0.73,0.45,1.49,0.45,2.3
		C208.72,29.44,208.46,31.15,207.94,32.49 M195.52,28.27c0.06,5.37,0,10.76-0.18,16.17c0.33,0.03,0.79,0.05,1.38,0.07
		c0.59,0.01,1.06,0.02,1.38,0.02c2.97,0,5.63-0.41,7.96-1.23c2.33-0.82,4.3-1.98,5.91-3.5c1.61-1.52,2.82-3.34,3.63-5.46
		c0.82-2.13,1.2-4.5,1.14-7.11c-0.09-2.79-0.63-5.19-1.63-7.18c-1-1.99-2.28-3.63-3.86-4.91c-1.58-1.28-3.34-2.21-5.31-2.81
		c-1.96-0.59-3.94-0.89-5.93-0.89c-0.8,0-1.59,0.04-2.36,0.11c-0.77,0.07-1.63,0.25-2.59,0.51
		C195.31,17.5,195.46,22.91,195.52,28.27 M175.61,37.68c-0.61-0.64-1.11-1.46-1.49-2.45c-0.39-1-0.67-2.1-0.85-3.32
		c-0.18-1.22-0.27-2.39-0.27-3.52c0-1.13,0.1-2.24,0.29-3.34c0.19-1.1,0.49-2.08,0.89-2.94c0.4-0.86,0.91-1.56,1.52-2.1
		c0.61-0.54,1.32-0.8,2.12-0.8c0.89,0,1.65,0.3,2.27,0.89c0.62,0.59,1.13,1.35,1.52,2.25c0.39,0.91,0.67,1.9,0.85,2.97
		c0.18,1.07,0.27,2.1,0.27,3.08c0,1.43-0.1,2.76-0.31,3.99c-0.21,1.23-0.52,2.32-0.94,3.26c-0.42,0.94-0.93,1.67-1.54,2.21
		c-0.61,0.54-1.32,0.8-2.12,0.8C176.95,38.64,176.22,38.32,175.61,37.68 M172.75,12.73c-1.53,0.8-2.82,1.93-3.88,3.37
		c-1.06,1.44-1.85,3.17-2.39,5.17c-0.54,2.01-0.8,4.21-0.8,6.62c0,2.56,0.29,4.88,0.87,6.98c0.58,2.1,1.4,3.88,2.48,5.35
		c1.07,1.47,2.36,2.61,3.88,3.41c1.52,0.8,3.23,1.2,5.13,1.2c1.75,0,3.36-0.45,4.82-1.36c1.46-0.91,2.71-2.13,3.77-3.68
		c1.06-1.55,1.87-3.34,2.45-5.4c0.58-2.05,0.87-4.22,0.87-6.51c0-2.41-0.3-4.62-0.91-6.62c-0.61-2.01-1.45-3.73-2.52-5.17
		c-1.07-1.44-2.33-2.56-3.79-3.37c-1.46-0.8-3.02-1.2-4.68-1.2C176.05,11.53,174.28,11.93,172.75,12.73 M149.23,16.68
		c0.65,0.1,1.23,0.31,1.72,0.62c0.49,0.31,0.86,0.75,1.11,1.32c0.25,0.57,0.35,1.32,0.29,2.27c-0.12,1.52-0.63,2.56-1.54,3.14
		s-2.15,0.87-3.72,0.87c0.06-1.43,0.1-2.82,0.11-4.19c0.02-1.37,0.01-2.76-0.02-4.19C147.89,16.52,148.58,16.57,149.23,16.68
		 M149.9,29.83c1.07,0.13,2.06,0.38,2.97,0.74c0.91,0.36,1.66,0.85,2.25,1.47c0.59,0.62,0.89,1.43,0.89,2.41
		c0,1.04-0.36,1.88-1.09,2.52c-0.73,0.64-1.63,1.13-2.7,1.47c-1.07,0.34-2.19,0.57-3.37,0.67c-1.17,0.1-2.21,0.16-3.1,0.16
		c0.21-1.61,0.4-3.2,0.58-4.79c0.18-1.59,0.34-3.2,0.49-4.84C147.8,29.63,148.83,29.7,149.9,29.83 M139.8,28.49
		c0.04,5.34-0.08,10.68-0.38,16.03h2.5c1.31,0,2.68-0.02,4.1-0.07c1.43-0.04,2.84-0.16,4.24-0.36c1.4-0.19,2.74-0.49,4.01-0.89
		c1.28-0.4,2.42-0.95,3.41-1.65c1-0.7,1.83-1.57,2.5-2.61c0.67-1.04,1.09-2.32,1.27-3.84c0.24-2.02-0.12-3.79-1.07-5.31
		c-0.95-1.52-2.3-2.59-4.06-3.21c1.25-0.8,2.14-1.75,2.68-2.83c0.54-1.08,0.79-2.33,0.76-3.72c-0.03-1.69-0.41-3.09-1.14-4.19
		c-0.73-1.1-1.68-1.97-2.85-2.61c-1.17-0.64-2.51-1.09-4.01-1.36c-1.5-0.27-3.04-0.4-4.62-0.4c-2.71,0-5.29,0.28-7.76,0.85
		C139.61,17.77,139.75,23.16,139.8,28.49 M128.45,11.48c-0.71,2.02-1.54,4-2.47,5.93c-0.94,1.93-1.97,3.85-3.1,5.75
		c-1.22-1.87-2.27-3.8-3.14-5.77c-0.88-1.98-1.78-4.04-2.7-6.18l-7.89,2.68c1.52,3.03,3.17,5.77,4.97,8.23
		c1.8,2.45,3.59,4.78,5.37,6.98c0.09,4.85-0.09,9.81-0.54,14.89l5.17,0.58c1.19-5.11,2.01-10.42,2.45-15.92h0.04
		c0.86-1.04,1.72-2.21,2.56-3.5c0.85-1.29,1.66-2.63,2.45-4.01c0.79-1.38,1.53-2.76,2.23-4.15c0.7-1.38,1.32-2.7,1.85-3.95
		L128.45,11.48z M97.05,20.4c1.1,1.01,1.72,2.36,1.87,4.06c0.18,2.53-0.33,4.48-1.54,5.86c-1.2,1.38-2.92,2.33-5.15,2.83
		c0.27-2.41,0.47-4.84,0.6-7.29c0.13-2.45,0.19-4.99,0.16-7.6C94.6,18.68,95.95,19.39,97.05,20.4 M85.04,19.78
		c0.25,2.68,0.42,5.34,0.51,8c0.09,2.66,0.09,5.33,0,8c-0.09,2.68-0.25,5.41-0.49,8.21l5.17,0.58c0.3-1.25,0.56-2.5,0.8-3.75
		c0.24-1.25,0.46-2.51,0.67-3.79h0.13c1.01,0,2-0.06,2.97-0.18c0.97-0.12,1.92-0.31,2.88-0.58l4.95,8.65l4.59-2.9l-3.75-8.96
		c1.07-1.01,1.92-2.23,2.56-3.66c0.64-1.43,0.96-3.11,0.96-5.04c0-1.99-0.41-3.86-1.23-5.6c-0.82-1.74-2.14-3.2-3.97-4.39
		c-1.83-1.19-4.19-2.04-7.09-2.56c-2.9-0.52-6.44-0.59-10.64-0.2C84.46,14.38,84.78,17.1,85.04,19.78 M79.93,44.88v-6.38
		l-14.27-0.09c0.03-0.18,0.08-0.49,0.16-0.94c0.07-0.45,0.15-0.92,0.22-1.43c0.07-0.51,0.14-0.99,0.2-1.45
		c0.06-0.46,0.1-0.81,0.13-1.05l12.26-0.18l0.18-6.06l-11.91-0.18c0.15-1.52,0.24-3.02,0.27-4.53c0.03-1.5,0.06-3.01,0.09-4.53
		l12.13-0.18l0.18-6.42l-20.51,0.18c0.42,5.71,0.67,11.32,0.76,16.83c0.09,5.52,0.01,11.04-0.22,16.57L79.93,44.88z M50.81,11.48
		c-1.28,4.43-2.6,8.77-3.97,13.02c-1.37,4.25-2.84,8.5-4.41,12.75c-0.09-1.61-0.26-3.5-0.51-5.69c-0.25-2.19-0.58-4.47-0.98-6.85
		c-0.4-2.38-0.86-4.76-1.38-7.14c-0.52-2.38-1.09-4.55-1.72-6.51l-7.85,1.56c0.77,1.99,1.55,4.3,2.32,6.91
		c0.77,2.62,1.52,5.34,2.23,8.18c0.71,2.84,1.37,5.7,1.98,8.58c0.61,2.88,1.14,5.57,1.58,8.07l9.45,0.27
		c1.78-5.44,3.35-10.87,4.7-16.3c1.35-5.43,2.62-10.9,3.81-16.43L50.81,11.48z M27.04,44.88v-6.38l-14.27-0.09
		c0.03-0.18,0.08-0.49,0.16-0.94c0.07-0.45,0.15-0.92,0.22-1.43c0.07-0.51,0.14-0.99,0.2-1.45c0.06-0.46,0.1-0.81,0.13-1.05
		l12.26-0.18l0.18-6.06l-11.91-0.18c0.15-1.52,0.24-3.02,0.27-4.53c0.03-1.5,0.06-3.01,0.09-4.53l12.13-0.18l0.18-6.42L6.17,11.66
		c0.42,5.71,0.67,11.32,0.76,16.83c0.09,5.52,0.01,11.04-0.22,16.57L27.04,44.88z"/>
</g>
</svg>
