<svg id="Layer_1" data-name="Layer 1" xmlns="http://www.w3.org/2000/svg" viewBox="0 0 801 1940.96"><defs><style>.cls-1{fill:#a51d37;}.cls-1,.cls-2{stroke:#000;stroke-miterlimit:10;}.cls-2{fill:#1f2f5f;}</style></defs><rect id="square" class="cls-1" x="0.5" y="444.01" width="800" height="593" rx="12"/><path id="spiral" class="cls-2" d="M238.5,1549.5c123.71-187.78,376.22-239.71,564-116,150.22,99,191.77,301,92.8,451.2-79.18,120.18-240.78,153.42-361,74.24C438.2,1895.6,411.61,1766.31,475,1670.17a166.77,166.77,0,0,1,231-47.51,133.41,133.41,0,0,1,38,184.81,106.74,106.74,0,0,1-147.85,30.41A85.38,85.38,0,0,1,571.8,1719.6a68.3,68.3,0,0,1,94.62-19.46,54.65,54.65,0,0,1,15.57,75.7" transform="translate(-193 -61.49)"/><path id="halfmoon" class="cls-1" d="M350.5,173.5c82.48,165.43,269.19,228,400,164,94.62-46.26,154-155.77,152-276" transform="translate(-193 -61.49)"/></svg>